{"title":"The Fifth Dimension - Live! WAV","uid":4747658,"size":805922956,"categoryP":"audio","categoryS":"music","magnet":"?xt=urn:btih:e8f1c7bfbc98cecd5410890255a551135d2caefc&amp;dn=The+Fifth+Dimension+-+Live%21+WAV&amp;tr=udp%3A%2F%2Ftracker.openbittorrent.com%3A80&amp;tr=udp%3A%2F%2Fopen.demonii.com%3A1337&amp;tr=udp%3A%2F%2Ftracker.coppersurfer.tk%3A6969&amp;tr=udp%3A%2F%2Fexodus.desync.com%3A6969","seeders":1,"leechers":0,"uploader":null,"files":17,"time":1235975492,"description":"REM GENRE Oldies\nREM DATE 2007\nREM DISCID 0211D811\nREM COMMENT &quot;ExactAudioCopy v0.99pb3&quot;\nPERFORMER &quot;The 5th Dimension&quot;\nTITLE &quot;Live!!&quot;\nFILE &quot;Range.wav&quot; WAVE\n  TRACK 01 AUDIO\n    TITLE &quot;What The World Needs Now Is Love/All You Need Is Love/Have You Tried Love?&quot;\n    PERFORMER &quot;The 5th Dimension&quot;\n    INDEX 01 00:00:00\n  TRACK 02 AUDIO\n    TITLE &quot;I Just Wanna Be Your Friend&quot;\n    PERFORMER &quot;The 5th Dimension&quot;\n    INDEX 01 04:32:51\n  TRACK 03 AUDIO\n    TITLE &quot;Intro&quot;\n    PERFORMER &quot;The 5th Dimension&quot;\n    INDEX 01 08:03:07\n  TRACK 04 AUDIO\n    TITLE &quot;Stoney End/Stoned Soul Picnic/Sweet Blindness/Wedding Bell Blues/Save The Cou...&quot;\n    PERFORMER &quot;The 5th Dimension&quot;\n    INDEX 01 08:14:25\n  TRACK 05 AUDIO\n    TITLE &quot;Never My Love&quot;\n    PERFORMER &quot;The 5th Dimension&quot;\n    INDEX 01 16:14:53\n  TRACK 06 AUDIO\n    TITLE &quot;Eli's Coming&quot;\n    PERFORMER &quot;The 5th Dimension&quot;\n    INDEX 01 20:32:24\n  TRACK 07 AUDIO\n    TITLE &quot;Together Let's Find Love&quot;\n    PERFORMER &quot;The 5th Dimension&quot;\n    INDEX 01 26:06:37\n  TRACK 08 AUDIO\n    TITLE &quot;Shake Your Tambourine&quot;\n    PERFORMER &quot;The 5th Dimension&quot;\n    INDEX 01 29:43:19\n  TRACK 09 AUDIO\n    TITLE &quot;Up, Up &amp; Away/Paper Cup/This Is Your Life/The Girl?s Song/The Worst That Coul...&quot;\n    PERFORMER &quot;The 5th Dimension&quot;\n    INDEX 01 33:30:25\n  TRACK 10 AUDIO\n    TITLE &quot;Ode To Bille Joe&quot;\n    PERFORMER &quot;The 5th Dimension&quot;\n    INDEX 01 40:33:11\n  TRACK 11 AUDIO\n    TITLE &quot;Band Intros&quot;\n    PERFORMER &quot;The 5th Dimension&quot;\n    INDEX 01 48:36:42\n  TRACK 12 AUDIO\n    TITLE &quot;Intro&quot;\n    PERFORMER &quot;The 5th Dimension&quot;\n    INDEX 01 50:51:63\n  TRACK 13 AUDIO\n    TITLE &quot;I Want To Take You Higher&quot;\n    PERFORMER &quot;The 5th Dimension&quot;\n    INDEX 01 51:11:66\n  TRACK 14 AUDIO\n    TITLE &quot;Aquarius/Let The Sun Shine In (The Flesh Failures)&quot;\n    PERFORMER &quot;The 5th Dimension&quot;\n    INDEX 01 57:51:57\n  TRACK 15 AUDIO\n    TITLE &quot;Use Your Head&quot;\n    PERFORMER &quot;The 5th Dimension&quot;\n    INDEX 00 65:51:34\n    INDEX 01 65:55:66\n  TRACK 16 AUDIO\n    TITLE &quot;Monday, Monday&quot;\n    PERFORMER &quot;The 5th Dimension&quot;\n    INDEX 01 69:40:74\n  TRACK 17 AUDIO\n    TITLE &quot;Goin Out Of My Head&quot;\n    PERFORMER &quot;The 5th Dimension&quot;\n    INDEX 01 72:21:71\n","torrent":{"xt":"urn:btih:e8f1c7bfbc98cecd5410890255a551135d2caefc","amp;dn":"The+Fifth+Dimension+-+Live%21+WAV","amp;tr":["udp%3A%2F%2Ftracker.openbittorrent.com%3A80","udp%3A%2F%2Fopen.demonii.com%3A1337","udp%3A%2F%2Ftracker.coppersurfer.tk%3A6969","udp%3A%2F%2Fexodus.desync.com%3A6969"],"infoHash":"e8f1c7bfbc98cecd5410890255a551135d2caefc","infoHashBuffer":{"type":"Buffer","data":[232,241,199,191,188,152,206,205,84,16,137,2,85,165,81,19,93,44,174,252]},"announce":[],"urlList":[]}}